# xmcd
#
# Track frame offsets:
#	150
#	18906
#	33160
#	50339
#	64185
#	83457
#	91586
#	109981
#	124013
#	140293
#	151984
#	169185
#	189579
#	203013
#	219198
#	228670
#	246443
#	258083
#	270937
#	285708
#
# Disc length: 3972 seconds
#
# Revision: 1
# Processed by: cddbd v1.5.2PL0 Copyright (c) Steve Scherf et al.
# Submitted via: audiograbber 1.83.01
#
DISCID=040f8214
DTITLE=ruzni - 100 Nej Country 1
DYEAR=2004
DGENRE=
TTITLE0=Oranzovy expres
TTITLE1=Frankie Dlouhan
TTITLE2=Dum u vychazejiciho slunce
TTITLE3=Jen vzpominky postmistrovic kluka
TTITLE4=Vsichni jsou uz v Mexiku
TTITLE5=U tri louzi
TTITLE6=Prani
TTITLE7=Oh, Rubby
TTITLE8=Posledni kovboj
TTITLE9=Stara archa - Kocabka
TTITLE10=Kazde rano
TTITLE11=Lady
TTITLE12=Co nevidetnse sejdem
TTITLE13=Doney Gal
TTITLE14=Slapej dal
TTITLE15=Mlyny
TTITLE16=Hribe
TTITLE17=Tam blizko Little Big Hornu
TTITLE18=Smutny psani
TTITLE19=Cadillac
EXTD=
EXTT0=
EXTT1=
EXTT2=
EXTT3=
EXTT4=
EXTT5=
EXTT6=
EXTT7=
EXTT8=
EXTT9=
EXTT10=
EXTT11=
EXTT12=
EXTT13=
EXTT14=
EXTT15=
EXTT16=
EXTT17=
EXTT18=
EXTT19=
PLAYORDER=
